<svg data-v-fde0c5aa="" xmlns="http://www.w3.org/2000/svg" viewBox="0 0 300 300" class="iconAbove"><!----><defs data-v-fde0c5aa=""><!----></defs><rect data-v-fde0c5aa="" fill="transparent" x="0" y="0" width="300px" height="300px" class="logo-background-square"></rect><defs data-v-fde0c5aa=""><!----></defs><g data-v-fde0c5aa="" id="9e11e9a6-ad71-45d3-9813-e1c5395342d3" fill="#000000" transform="matrix(2.5225574926731684,0,0,2.5225574926731684,18.23420978520001,161.81265162838758)"><path d="M1.20 14L6.87 14C7 14 7.11 13.99 7.22 13.80L7.81 12.87C7.88 12.75 7.92 12.47 7.81 12.40C7.53 12.24 7.43 12.60 6.87 12.60L3.11 12.60C2.94 12.60 2.83 12.57 2.83 12.26L2.83 5.24C2.83 4.61 3.29 4.66 3.29 4.44C3.29 4.23 3.08 4.20 2.77 4.20L1.20 4.20C0.90 4.20 0.73 4.27 0.73 4.44C0.73 4.72 1.23 4.47 1.23 5.31L1.23 12.92C1.23 13.58 0.70 13.41 0.70 13.78C0.70 13.99 0.88 14 1.20 14ZM9.13 14L16.34 14C16.51 14 16.58 13.90 16.58 13.71L16.58 12.61C16.58 12.35 16.58 12.12 16.32 12.12C15.97 12.12 16.23 12.61 15.53 12.61L11.21 12.61C10.95 12.61 10.79 12.60 10.79 12.28L10.79 10.05C10.78 9.83 10.92 9.72 11.19 9.72L13.96 9.72C14.36 9.72 14.42 10.14 14.59 10.14C14.78 10.14 14.88 10.02 14.88 9.63L14.88 8.50C14.88 8.19 14.87 7.97 14.62 7.97C14.42 7.97 14.42 8.34 13.96 8.34L11.10 8.34C10.85 8.34 10.78 8.26 10.78 7.95L10.78 5.87C10.78 5.67 10.88 5.59 11.05 5.59L15.41 5.59C16.18 5.59 16.03 6.05 16.31 6.05C16.58 6.05 16.58 5.73 16.58 5.56L16.58 4.51C16.58 4.24 16.39 4.20 16.23 4.20L9.52 4.20C9.10 4.20 8.62 4.14 8.62 4.38C8.62 4.84 9.18 4.49 9.18 5.40L9.20 12.94C9.20 13.61 8.58 13.45 8.58 13.83C8.58 14.04 9.00 14 9.13 14ZM17.39 14L18.97 14C19.38 14 19.59 13.97 19.59 13.76C19.59 13.29 19.17 13.62 19.38 12.81L19.50 12.32C19.57 12.17 19.74 12.12 19.88 12.12L23.27 12.12C23.45 12.12 23.56 12.15 23.63 12.35L23.88 13.05C24.05 13.52 23.56 13.36 23.56 13.76C23.56 13.97 23.70 14 24.02 14L25.70 14C26.10 14 26.24 13.97 26.24 13.73C26.24 13.41 25.83 13.51 25.62 12.96L22.62 5.22C22.43 4.73 22.89 4.77 22.89 4.47C22.89 4.27 22.76 4.20 22.54 4.20L20.48 4.20C20.27 4.20 20.15 4.27 20.15 4.47C20.15 4.73 20.51 4.72 20.34 5.22L17.68 12.89C17.47 13.51 17.00 13.38 17.00 13.73C17.00 13.96 17.19 14 17.39 14ZM20.22 10.74C20.05 10.74 19.96 10.65 20.02 10.49L21.38 6.55C21.42 6.43 21.55 6.41 21.60 6.57L22.99 10.43C23.04 10.58 23.02 10.74 22.85 10.74ZM27.30 14L29.06 14C29.41 14 29.54 13.93 29.54 13.78C29.54 13.44 29.04 13.54 29.04 12.92L29.04 10.78C29.04 10.25 29.27 10.28 29.40 10.28L32.02 10.28C32.40 10.28 32.49 10.32 32.59 10.56L33.60 12.92C33.85 13.52 33.31 13.40 33.31 13.79C33.31 13.96 33.43 14 33.99 14L35.35 14C35.59 14 35.81 14 35.81 13.78C35.81 13.40 35.36 13.47 35.20 13.06L34.02 10.25C33.95 10.08 33.96 9.97 34.16 9.84C34.69 9.49 35.46 8.51 35.46 7.39C35.46 5.19 33.78 4.20 31.96 4.20L27.72 4.20C27.13 4.20 26.94 4.26 26.94 4.42C26.94 4.77 27.47 4.56 27.47 5.49L27.47 12.89C27.47 13.47 26.95 13.48 26.95 13.79C26.95 14 27.19 14 27.30 14ZM29.53 8.88C29.26 8.88 29.05 8.79 29.05 8.54L29.04 6.10C29.04 5.77 29.20 5.68 29.47 5.68L31.96 5.68C33.31 5.68 33.82 6.38 33.82 7.39C33.82 8.27 33.08 8.88 32.16 8.88ZM37.17 14L38.81 14C39.17 14 39.33 14.03 39.33 13.80C39.33 13.41 38.74 13.68 38.74 12.80L38.74 8.40C38.74 8.08 38.91 8.01 39.16 8.22L44.06 12.38C44.24 12.56 44.35 12.77 44.35 12.92L44.35 13.66C44.35 13.85 44.42 14 44.62 14L45.93 14C46.12 14 46.37 14 46.37 13.76C46.37 13.40 45.92 13.48 45.92 12.94L45.92 5.54C45.92 4.56 46.42 4.82 46.42 4.47C46.42 4.23 46.14 4.20 45.63 4.20L44.67 4.20C44.07 4.20 43.85 4.20 43.85 4.44C43.85 4.80 44.35 4.52 44.35 5.63L44.35 10.15C44.35 10.47 44.18 10.51 44.00 10.35L39.00 6.05C38.82 5.87 38.72 5.80 38.72 5.54L38.72 4.56C38.72 4.31 38.58 4.20 38.32 4.20L37.32 4.20C36.88 4.20 36.69 4.21 36.69 4.41C36.69 4.72 37.17 4.55 37.18 5.40L37.18 12.77C37.21 13.62 36.65 13.43 36.65 13.80C36.65 14 36.89 14 37.17 14ZM52.77 14L57.48 14C59.39 14 60.28 12.64 60.28 11.07C60.28 9.53 59.36 8.88 58.95 8.69C58.83 8.64 58.84 8.53 58.93 8.46C59.18 8.25 59.65 7.73 59.65 6.75C59.65 5.15 58.48 4.20 56.80 4.20L52.60 4.20C52.22 4.20 52.02 4.23 52.02 4.47C52.02 4.77 52.60 4.61 52.60 5.31L52.60 12.75C52.60 13.58 52.08 13.38 52.08 13.73C52.08 14 52.53 14 52.77 14ZM54.50 8.29C54.26 8.29 54.19 8.18 54.19 7.97L54.22 5.92C54.22 5.67 54.36 5.63 54.56 5.63L56.80 5.63C57.51 5.63 58.10 6.06 58.10 6.90C58.10 7.74 57.48 8.29 56.87 8.29ZM54.46 12.63C54.19 12.63 54.17 12.52 54.17 12.29L54.18 9.90C54.18 9.70 54.32 9.67 54.43 9.67L56.97 9.67C57.79 9.67 58.70 9.95 58.70 11.07C58.70 12.05 58.04 12.63 57.15 12.63ZM61.77 14L63.53 14C63.88 14 64.01 13.93 64.01 13.78C64.01 13.44 63.50 13.54 63.50 12.92L63.50 10.78C63.50 10.25 63.74 10.28 63.87 10.28L66.49 10.28C66.86 10.28 66.96 10.32 67.06 10.56L68.07 12.92C68.32 13.52 67.77 13.40 67.77 13.79C67.77 13.96 67.90 14 68.46 14L69.82 14C70.06 14 70.28 14 70.28 13.78C70.28 13.40 69.83 13.47 69.66 13.06L68.49 10.25C68.42 10.08 68.43 9.97 68.63 9.84C69.16 9.49 69.93 8.51 69.93 7.39C69.93 5.19 68.25 4.20 66.43 4.20L62.19 4.20C61.60 4.20 61.40 4.26 61.40 4.42C61.40 4.77 61.94 4.56 61.94 5.49L61.94 12.89C61.94 13.47 61.42 13.48 61.42 13.79C61.42 14 61.66 14 61.77 14ZM63.99 8.88C63.73 8.88 63.52 8.79 63.52 8.54L63.50 6.10C63.50 5.77 63.67 5.68 63.94 5.68L66.43 5.68C67.77 5.68 68.29 6.38 68.29 7.39C68.29 8.27 67.55 8.88 66.63 8.88ZM71.61 14L73.19 14C73.29 14 73.70 14 73.70 13.80C73.70 13.50 73.18 13.54 73.18 12.80L73.18 5.32C73.18 4.58 73.68 4.63 73.68 4.41C73.68 4.16 73.29 4.20 73.19 4.20L71.65 4.20C71.50 4.20 71.22 4.20 71.22 4.41C71.22 4.66 71.62 4.59 71.62 5.32L71.62 12.80C71.62 13.47 71.12 13.51 71.12 13.75C71.12 13.99 71.32 14 71.61 14ZM75.85 14L79.79 14C82.64 14 84.45 11.80 84.45 9.03C84.45 6.23 82.61 4.20 79.77 4.20L75.89 4.20C75.60 4.20 75.26 4.17 75.26 4.41C75.26 4.76 75.78 4.58 75.78 5.43L75.78 12.81C75.78 13.54 75.24 13.36 75.24 13.72C75.24 13.97 75.57 14 75.85 14ZM77.67 12.56C77.41 12.56 77.34 12.50 77.34 12.18L77.34 5.95C77.34 5.77 77.45 5.66 77.67 5.66L79.32 5.64C81.38 5.63 82.75 6.50 82.75 9.00C82.75 11.44 81.45 12.56 79.32 12.56ZM90.16 14.20C93.02 14.20 94.11 12.56 94.26 12.15C94.30 12.04 94.30 11.94 94.30 11.84L94.30 10.26C94.30 9.56 94.65 9.81 94.65 9.52C94.65 9.28 94.43 9.28 94.25 9.28L92.83 9.28C92.55 9.28 92.40 9.30 92.40 9.53C92.40 9.83 92.78 9.55 92.78 10.36L92.78 11.34C92.78 11.52 92.76 11.56 92.71 11.68C92.46 12.17 91.46 12.84 90.17 12.84C88.40 12.84 86.77 11.47 86.77 9.11C86.77 6.79 88.41 5.40 90.16 5.40C91.64 5.40 92.19 5.74 92.79 6.15C93.41 6.57 93.17 6.80 93.35 6.93C93.52 7.06 93.67 6.89 93.81 6.66L94.43 5.74C94.53 5.59 94.68 5.35 94.51 5.24C94.26 5.07 94.16 5.36 93.65 5.05C93.44 4.93 92.33 3.99 90.16 3.99C87.04 3.99 85.15 6.26 85.15 9.11C85.15 11.79 86.93 14.20 90.16 14.20ZM96.32 14L103.53 14C103.70 14 103.77 13.90 103.77 13.71L103.77 12.61C103.77 12.35 103.77 12.12 103.52 12.12C103.17 12.12 103.42 12.61 102.72 12.61L98.41 12.61C98.14 12.61 97.99 12.60 97.99 12.28L97.99 10.05C97.97 9.83 98.11 9.72 98.38 9.72L101.15 9.72C101.56 9.72 101.61 10.14 101.78 10.14C101.98 10.14 102.07 10.02 102.07 9.63L102.07 8.50C102.07 8.19 102.06 7.97 101.81 7.97C101.61 7.97 101.61 8.34 101.15 8.34L98.29 8.34C98.04 8.34 97.97 8.26 97.97 7.95L97.97 5.87C97.97 5.67 98.07 5.59 98.24 5.59L102.61 5.59C103.38 5.59 103.22 6.05 103.50 6.05C103.77 6.05 103.77 5.73 103.77 5.56L103.77 4.51C103.77 4.24 103.59 4.20 103.42 4.20L96.71 4.20C96.29 4.20 95.82 4.14 95.82 4.38C95.82 4.84 96.38 4.49 96.38 5.40L96.39 12.94C96.39 13.61 95.77 13.45 95.77 13.83C95.77 14.04 96.19 14 96.32 14Z"></path></g><defs data-v-fde0c5aa=""><linearGradient data-v-fde0c5aa="" gradientTransform="rotate(25)" id="7c90bbea-3426-4303-8e5f-0567bbdbd347" x1="0%" y1="0%" x2="100%" y2="0%"><stop data-v-fde0c5aa="" offset="0%" stop-color="#01648B" stop-opacity="1"></stop><stop data-v-fde0c5aa="" offset="100%" stop-color="#5BD0A4" stop-opacity="1"></stop></linearGradient></defs><g data-v-fde0c5aa="" id="d8034977-ae5b-4010-8ff1-da3fc112b1fb" stroke="none" fill="url(#7c90bbea-3426-4303-8e5f-0567bbdbd347)" transform="matrix(0.5494231841660558,0,0,0.5494231841660558,122.52664692604311,100.65008636974004)"><path d="M49.793 25.855a9.986 9.986 0 007.074-2.93 9.979 9.979 0 002.93-7.074 9.986 9.986 0 00-2.93-7.074c-1.808-1.809-4.312-2.93-7.074-2.93s-5.262 1.121-7.074 2.93a9.979 9.979 0 00-2.93 7.074 9.986 9.986 0 002.93 7.074 9.986 9.986 0 007.074 2.93zm-.383 55.992c2.035 0 3.88-.824 5.215-2.16s2.16-3.176 2.16-5.215a7.35 7.35 0 00-2.16-5.215 7.344 7.344 0 00-5.215-2.16 7.35 7.35 0 00-5.215 2.16 7.344 7.344 0 00-2.16 5.215 7.35 7.35 0 002.16 5.215 7.367 7.367 0 005.215 2.16zm7.137-.238a10.061 10.061 0 01-7.137 2.957c-2.789 0-5.308-1.13-7.137-2.957a10.078 10.078 0 01-2.957-7.137c0-2.79 1.13-5.309 2.957-7.137a10.078 10.078 0 017.137-2.957c2.79 0 5.309 1.13 7.137 2.957a10.078 10.078 0 012.957 7.137c0 2.79-1.133 5.313-2.957 7.137zm-3.39 6.87a1.361 1.361 0 00-1.141 1.345v4.328h-5.211v-4.328H46.8c0-.606-.406-1.157-1.02-1.313a14.327 14.327 0 01-1.914-.644c-.605-.25-1.187-.54-1.746-.868a1.364 1.364 0 00-1.723.168l-3.062 3.063-3.684-3.684 3.063-3.062c.43-.426.531-1.106.207-1.653a14.528 14.528 0 01-1.52-3.613 1.361 1.361 0 00-1.343-1.14l-4.329.003v-5.21h4.329v-.004c.605 0 1.156-.407 1.312-1.02.164-.64.379-1.281.645-1.914.25-.605.539-1.187.867-1.746.355-.527.3-1.254-.168-1.719l-3.063-3.062 3.684-3.684 3.062 3.063c.43.43 1.106.53 1.653.207a14.265 14.265 0 011.812-.907 14.184 14.184 0 011.801-.613 1.361 1.361 0 001.14-1.344V54.8h5.212v4.328h.003c0 .606.407 1.156 1.02 1.313.64.164 1.281.383 1.914.644.606.25 1.188.54 1.746.867.527.356 1.254.301 1.723-.167l3.062-3.063 3.684 3.684-3.063 3.062a1.355 1.355 0 00-.207 1.652 14.398 14.398 0 011.52 3.613c.105.65.668 1.141 1.344 1.141h4.328v5.211h-4.328v.004c-.606 0-1.156.406-1.313 1.02-.164.64-.383 1.28-.644 1.914-.25.605-.54 1.187-.867 1.746-.356.527-.301 1.254.167 1.723l3.063 3.062-3.684 3.684-3.062-3.063a1.354 1.354 0 00-1.652-.207c-.579.344-1.184.645-1.813.906-.598.243-1.2.446-1.8.606zm2.84 1.9c-.407.167-.829.323-1.259.464v4.676c0 .75-.61 1.36-1.36 1.36h-7.933c-.75 0-1.36-.61-1.36-1.36v-4.672a17.052 17.052 0 01-2.48-1.023l-3.304 3.304a1.363 1.363 0 01-1.926 0l-5.61-5.61a1.363 1.363 0 010-1.925l3.305-3.305a17.169 17.169 0 01-1.027-2.484h-4.676c-.75 0-1.36-.61-1.36-1.36v-1.706l-6.187-2.024a1.359 1.359 0 01-1.023-1.32v-7.227c-.098.004-.192.004-.29.004a9.581 9.581 0 01-6.804-2.82 9.595 9.595 0 01-2.82-6.805c0-.394.027-.805.086-1.238a9.49 9.49 0 01.234-1.219 1.45 1.45 0 01.063-.184c.003-.027.007-.058.015-.09a25.09 25.09 0 013.465-8.359c1.625-2.52 3.676-4.738 6.05-6.66v-2.684h.005a1.356 1.356 0 011.777-1.29l2.73.896c7.16-4.137 16.195-6.238 25.25-6.305 9.075-.066 18.195 1.91 25.484 5.934.07.039.137.086.2.133l2.004-.653a1.359 1.359 0 011.777 1.29h.004v1.777c2.722 2.007 5.07 4.367 6.91 7.085a25.192 25.192 0 013.79 8.844c.003.012.003.028.007.043.016.04.027.078.039.121.113.414.203.84.262 1.27a9.588 9.588 0 01-2.73 8.102 9.595 9.595 0 01-8.274 2.706v7.332c0 .637-.434 1.168-1.024 1.32l-6.187 2.024v1.707c0 .75-.61 1.36-1.36 1.36H65.79a17.052 17.052 0 01-1.024 2.48l3.305 3.305a1.363 1.363 0 010 1.926l-5.61 5.609a1.363 1.363 0 01-1.925 0l-3.305-3.305c-.41.196-.82.383-1.235.555zM27.007 73.873l-4.488-1.469v-6.718a9.588 9.588 0 003.797-2.34 9.595 9.595 0 002.82-6.805 9.575 9.575 0 00-2.02-5.89 9.666 9.666 0 00-4.597-3.254v-9.41l25.527 8.347v5.738H45.44c-.75 0-1.36.61-1.36 1.36v4.672a17.052 17.052 0 00-2.48 1.023l-3.304-3.305a1.363 1.363 0 00-1.926 0l-5.61 5.61a1.363 1.363 0 000 1.926l3.31 3.308a16.522 16.522 0 00-1.024 2.48H28.37c-.75 0-1.36.61-1.36 1.364zM50.77 52.07v-5.738l25.527-8.348v9.895a9.676 9.676 0 00-3.789 3.277 9.601 9.601 0 00-1.648 5.387 9.588 9.588 0 002.82 6.804 9.647 9.647 0 002.617 1.864v7.195l-4.488 1.469v-3.367c0-.75-.61-1.36-1.36-1.36h-4.675a17.056 17.056 0 00-1.024-2.48l3.305-3.305a1.363 1.363 0 000-1.926l-5.61-5.61a1.363 1.363 0 00-1.925 0l-3.305 3.306a16.522 16.522 0 00-2.48-1.024v-4.672c0-.75-.61-1.36-1.36-1.36l-2.605-.003zm36.38 2.63c-.009-.028-.017-.056-.02-.087a1.391 1.391 0 01-.07-.226 22.449 22.449 0 00-3.372-7.895c-1.293-1.91-2.867-3.625-4.664-5.152v7.289c0 .45-.215.844-.55 1.094a1.36 1.36 0 01-.548.402 6.907 6.907 0 00-4.336 6.418c0 1.906.774 3.633 2.024 4.883s2.976 2.023 4.883 2.023 3.632-.773 4.882-2.023 2.024-2.977 2.024-4.883c0-.336-.02-.648-.059-.934a8.544 8.544 0 00-.195-.91zm-74.29-.056c-.008.043-.016.09-.027.133a6.473 6.473 0 00-.223 1.77c0 1.906.774 3.633 2.023 4.883s2.977 2.023 4.883 2.023 3.633-.773 4.883-2.023 2.023-2.977 2.023-4.883c0-1.598-.539-3.067-1.445-4.23a6.92 6.92 0 00-3.742-2.458 1.366 1.366 0 01-.379-.16 1.361 1.361 0 01-1.05-1.324v-5.957a24.58 24.58 0 00-3.762 4.512 22.366 22.366 0 00-3.094 7.468c-.028.082-.055.168-.09.247zm15.023-17.762l21.527 7.04 22.23-7.27c-6.504-3.082-14.293-4.594-22.07-4.535-7.684.058-15.332 1.644-21.688 4.765zm30.91-12.035a12.682 12.682 0 01-9 3.727 12.69 12.69 0 01-8.996-3.727 12.68 12.68 0 01-3.727-8.996c0-3.511 1.426-6.695 3.727-9a12.69 12.69 0 018.996-3.726c3.516 0 6.695 1.426 9 3.726a12.682 12.682 0 013.727 9c0 3.512-1.422 6.696-3.727 8.996z"></path></g><!----></svg>